<?xml version="1.0" standalone="no"?>
<!DOCTYPE svg PUBLIC "-//W3C//DTD SVG 20010904//EN"
 "http://www.w3.org/TR/2001/REC-SVG-20010904/DTD/svg10.dtd">
<svg version="1.0" xmlns="http://www.w3.org/2000/svg"
 width="336.000000pt" height="353.000000pt" viewBox="0 0 336.000000 353.000000"
 preserveAspectRatio="xMidYMid meet">
<metadata>
Created by potrace 1.16, written by Peter Selinger 2001-2019
</metadata>
<g transform="translate(0.000000,353.000000) scale(0.100000,-0.100000)"
fill="#000000" stroke="none">
<path d="M190 2015 l0 -1265 225 0 225 0 0 560 0 560 560 0 560 0 0 -560 0
-560 225 0 225 0 0 1265 0 1265 -225 0 -225 0 0 -525 0 -525 -560 0 -560 0 0
525 0 525 -225 0 -225 0 0 -1265z"/>
<path d="M2704 1511 c-178 -51 -261 -167 -252 -355 8 -174 69 -252 289 -367
211 -110 274 -181 254 -285 -9 -51 -67 -106 -129 -124 -89 -25 -223 8 -312 75
l-32 25 -20 -33 c-10 -17 -33 -58 -51 -89 l-32 -57 40 -29 c60 -44 191 -83
293 -90 156 -9 271 28 360 115 71 70 93 127 93 248 0 91 -3 105 -30 158 -40
81 -107 138 -271 232 -153 87 -227 148 -245 202 -14 43 -7 105 16 139 52 80
243 85 345 9 18 -14 37 -25 41 -25 4 0 28 37 54 82 54 92 56 86 -37 134 -105
54 -259 68 -374 35z"/>
</g>
</svg>
